<?xml version="1.0" standalone="no"?>
<!DOCTYPE svg PUBLIC "-//W3C//DTD SVG 20010904//EN"
 "http://www.w3.org/TR/2001/REC-SVG-20010904/DTD/svg10.dtd">
<svg version="1.0" xmlns="http://www.w3.org/2000/svg"
 width="512.000000pt" height="512.000000pt" viewBox="0 0 512.000000 512.000000"
 preserveAspectRatio="xMidYMid meet">
<metadata>
Created by potrace 1.14, written by Peter Selinger 2001-2017
</metadata>
<g transform="translate(0.000000,512.000000) scale(0.100000,-0.100000)"
fill="#000000" stroke="none">
<path d="M2251 5108 c-13 -7 -34 -26 -45 -41 -21 -28 -21 -37 -21 -507 0 -370
3 -482 13 -492 17 -17 16 -160 -2 -201 -7 -18 -86 -106 -174 -197 -91 -93
-171 -185 -184 -210 -22 -42 -23 -55 -22 -225 1 -99 3 -241 5 -315 1 -74 -1
-134 -4 -132 -4 1 -11 2 -16 2 -17 0 -74 63 -92 103 -24 55 -24 76 4 105 21
23 22 31 25 238 3 185 1 219 -14 250 -32 67 -39 68 -307 68 l-239 0 -34 -37
c-24 -26 -34 -47 -34 -69 -5 -379 -1 -429 37 -467 16 -15 12 -45 -14 -98 -22
-47 -85 -100 -135 -113 -201 -54 -271 -100 -333 -220 -32 -63 -43 -127 -44
-268 -2 -153 6 -188 43 -198 23 -5 25 -11 28 -77 4 -98 -1 -137 -17 -137 -7 0
-23 -12 -34 -26 -21 -27 -21 -31 -21 -846 0 -742 2 -823 17 -861 21 -52 38
-72 88 -106 l40 -26 1769 -3 c1243 -1 1780 1 1808 9 52 14 129 90 146 144 9
31 11 318 9 1250 l-2 1210 -27 57 c-28 61 -80 117 -173 188 -33 25 -67 52 -76
60 -9 8 -50 41 -92 74 -84 64 -79 51 -57 159 9 42 5 314 -4 362 -4 17 -11 55
-17 85 -6 30 -17 78 -25 107 -14 47 -13 55 1 83 14 27 16 70 17 268 0 131 -5
248 -10 262 -5 14 -23 36 -38 50 l-29 25 -286 0 c-319 0 -326 -2 -355 -70 -22
-52 -20 -484 2 -530 15 -32 14 -40 -4 -117 -46 -190 -60 -410 -35 -546 15 -78
11 -91 -27 -112 -16 -9 -17 6 -16 193 1 198 0 203 -24 249 -14 26 -97 121
-184 212 -88 91 -165 178 -171 193 -18 43 -19 172 -1 208 12 25 14 104 13 503
l-2 474 -37 33 -36 34 -264 0 c-192 1 -269 -2 -287 -11z"/>
</g>
</svg>
